<svg width="50" height="50" viewBox="0 0 50 50" fill="none" xmlns="http://www.w3.org/2000/svg">
<path d="M25 47.3958C23.375 47.3958 21.7916 46.5625 20.7083 45.1041L18.6041 42.2916C18.1666 41.7083 17.5833 41.375 16.9583 41.3333C16.3333 41.3125 15.7083 41.5833 15.2083 42.1041L14.0208 41.0416L15.1666 42.1041C12.1666 45.3125 9.85413 45.0625 8.74996 44.625C7.62496 44.1875 5.72913 42.75 5.72913 38.125V14.6666C5.72913 5.41663 8.39579 2.60413 17.125 2.60413H32.875C41.6041 2.60413 44.2708 5.41663 44.2708 14.6666V38.125C44.2708 42.7291 42.375 44.1666 41.25 44.625C40.1458 45.0625 37.8541 45.3125 34.8333 42.1041C34.3333 41.5625 33.7291 41.2708 33.0625 41.3333C32.4375 41.375 31.8333 41.7083 31.3958 42.2916L29.2916 45.1041C28.2083 46.5625 26.625 47.3958 25 47.3958ZM16.8333 38.1875C16.9166 38.1875 17.0208 38.1875 17.1041 38.1875C18.6458 38.2708 20.1041 39.0833 21.0833 40.3958L23.1875 43.2083C24.2083 44.5625 25.7708 44.5625 26.7916 43.2083L28.8958 40.3958C29.8958 39.0833 31.3333 38.2708 32.8958 38.1875C34.4375 38.1041 35.9791 38.75 37.1041 39.9583C38.6875 41.6458 39.7291 41.8541 40.0833 41.7083C40.5833 41.5 41.125 40.2916 41.125 38.125V14.6666C41.125 7.14579 39.8125 5.72913 32.8541 5.72913H17.125C10.1666 5.72913 8.85413 7.14579 8.85413 14.6666V38.125C8.85413 40.3125 9.39579 41.5208 9.89579 41.7083C10.25 41.8541 11.2916 41.6458 12.875 39.9583C14 38.8125 15.3958 38.1875 16.8333 38.1875Z" fill="#6B7280"/>
<path d="M33.3333 16.1459H16.6666C15.8125 16.1459 15.1041 15.4375 15.1041 14.5834C15.1041 13.7292 15.8125 13.0209 16.6666 13.0209H33.3333C34.1875 13.0209 34.8958 13.7292 34.8958 14.5834C34.8958 15.4375 34.1875 16.1459 33.3333 16.1459Z" fill="#6B7280"/>
<path d="M31.25 24.4791H18.75C17.8958 24.4791 17.1875 23.7708 17.1875 22.9166C17.1875 22.0625 17.8958 21.3541 18.75 21.3541H31.25C32.1042 21.3541 32.8125 22.0625 32.8125 22.9166C32.8125 23.7708 32.1042 24.4791 31.25 24.4791Z" fill="#6B7280"/>
</svg>
