<svg
                  width="32"
                  height="32"
                  viewBox="0 0 32 32"
                  fill="none"
                  xmlns="http://www.w3.org/2000/svg"
                >
                  <path
                    d="M16.1594 18.04C16.1327 18.04 16.0927 18.04 16.0661 18.04C16.0261 18.04 15.9727 18.04 15.9327 18.04C12.9061 17.9466 10.6394 15.5866 10.6394 12.68C10.6394 9.71997 13.0527 7.30664 16.0127 7.30664C18.9727 7.30664 21.3861 9.71997 21.3861 12.68C21.3727 15.6 19.0927 17.9466 16.1994 18.04C16.1727 18.04 16.1727 18.04 16.1594 18.04ZM15.9994 9.29331C14.1327 9.29331 12.6261 10.8133 12.6261 12.6666C12.6261 14.4933 14.0527 15.9733 15.8661 16.04C15.9061 16.0266 16.0394 16.0266 16.1727 16.04C17.9594 15.9466 19.3594 14.48 19.3727 12.6666C19.3727 10.8133 17.8661 9.29331 15.9994 9.29331Z"
                    fill="black"
                  />
                  <path
                    d="M15.9997 30.3333C12.413 30.3333 8.98637 28.9999 6.33303 26.5733C6.09303 26.3599 5.98637 26.0399 6.01303 25.7333C6.18637 24.1466 7.17303 22.6666 8.81303 21.5733C12.7864 18.9333 19.2264 18.9333 23.1864 21.5733C24.8264 22.6799 25.813 24.1466 25.9864 25.7333C26.0264 26.0533 25.9064 26.3599 25.6664 26.5733C23.013 28.9999 19.5864 30.3333 15.9997 30.3333ZM8.10637 25.4666C10.3197 27.3199 13.1064 28.3333 15.9997 28.3333C18.893 28.3333 21.6797 27.3199 23.893 25.4666C23.653 24.6533 23.013 23.8666 22.0664 23.2266C18.7864 21.0399 13.2264 21.0399 9.9197 23.2266C8.97303 23.8666 8.34637 24.6533 8.10637 25.4666Z"
                    fill="black"
                  />
                  <path
                    d="M16.0003 30.3334C8.09366 30.3334 1.66699 23.9067 1.66699 16.0001C1.66699 8.09341 8.09366 1.66675 16.0003 1.66675C23.907 1.66675 30.3337 8.09341 30.3337 16.0001C30.3337 23.9067 23.907 30.3334 16.0003 30.3334ZM16.0003 3.66675C9.20033 3.66675 3.66699 9.20008 3.66699 16.0001C3.66699 22.8001 9.20033 28.3334 16.0003 28.3334C22.8003 28.3334 28.3337 22.8001 28.3337 16.0001C28.3337 9.20008 22.8003 3.66675 16.0003 3.66675Z"
                    fill="black"
                  />
                </svg>