<svg width="25" height="24" viewBox="0 0 25 24" fill="none" xmlns="http://www.w3.org/2000/svg">
<path d="M12.8719 16.3021C10.4972 16.3021 8.56958 14.3745 8.56958 11.9998C8.56958 9.62511 10.4972 7.69751 12.8719 7.69751C15.2466 7.69751 17.1742 9.62511 17.1742 11.9998C17.1742 14.3745 15.2466 16.3021 12.8719 16.3021ZM12.8719 9.18792C11.3219 9.18792 10.06 10.4498 10.06 11.9998C10.06 13.5499 11.3219 14.8117 12.8719 14.8117C14.4219 14.8117 15.6838 13.5499 15.6838 11.9998C15.6838 10.4498 14.4219 9.18792 12.8719 9.18792Z" fill="black"/>
<path d="M12.8721 20.9623C9.13615 20.9623 5.60885 18.7763 3.18445 14.9807C2.13123 13.3413 2.13123 10.6685 3.18445 9.01911C5.61878 5.22353 9.14609 3.0376 12.8721 3.0376C16.5981 3.0376 20.1254 5.22353 22.5498 9.01911C23.6031 10.6586 23.6031 13.3314 22.5498 14.9807C20.1254 18.7763 16.5981 20.9623 12.8721 20.9623ZM12.8721 4.52801C9.66276 4.52801 6.59252 6.4556 4.44633 9.82393C3.70112 10.9864 3.70112 13.0134 4.44633 14.1759C6.59252 17.5443 9.66276 19.4718 12.8721 19.4718C16.0815 19.4718 19.1517 17.5443 21.2979 14.1759C22.0431 13.0134 22.0431 10.9864 21.2979 9.82393C19.1517 6.4556 16.0815 4.52801 12.8721 4.52801Z" fill="black"/>
</svg>
