<svg width="22" height="22" viewBox="0 0 22 22" fill="none" xmlns="http://www.w3.org/2000/svg">
<path d="M11.0001 19.4794C10.8259 19.4794 10.6518 19.4152 10.5143 19.2777L4.95011 13.7135C4.68427 13.4477 4.68427 13.0077 4.95011 12.7419C5.21594 12.476 5.65594 12.476 5.92177 12.7419L11.0001 17.8202L16.0784 12.7419C16.3443 12.476 16.7843 12.476 17.0501 12.7419C17.3159 13.0077 17.3159 13.4477 17.0501 13.7135L11.4859 19.2777C11.3484 19.4152 11.1743 19.4794 11.0001 19.4794Z" fill="#6B7280"/>
<path d="M11 19.3235C10.6242 19.3235 10.3125 19.0118 10.3125 18.636V3.2085C10.3125 2.83266 10.6242 2.521 11 2.521C11.3758 2.521 11.6875 2.83266 11.6875 3.2085V18.636C11.6875 19.0118 11.3758 19.3235 11 19.3235Z" fill="#6B7280"/>
</svg>
