<svg width="22" height="22" viewBox="0 0 22 22" fill="none" xmlns="http://www.w3.org/2000/svg">
<path d="M10.9999 20.8541C5.56409 20.8541 1.14575 16.4358 1.14575 10.9999C1.14575 5.56409 5.56409 1.14575 10.9999 1.14575C16.4358 1.14575 20.8541 5.56409 20.8541 10.9999C20.8541 16.4358 16.4358 20.8541 10.9999 20.8541ZM10.9999 2.52075C6.32492 2.52075 2.52075 6.32492 2.52075 10.9999C2.52075 15.6749 6.32492 19.4791 10.9999 19.4791C15.6749 19.4791 19.4791 15.6749 19.4791 10.9999C19.4791 6.32492 15.6749 2.52075 10.9999 2.52075Z" fill="black"/>
<path d="M11 12.6041C10.6242 12.6041 10.3125 12.2924 10.3125 11.9166V7.33325C10.3125 6.95742 10.6242 6.64575 11 6.64575C11.3758 6.64575 11.6875 6.95742 11.6875 7.33325V11.9166C11.6875 12.2924 11.3758 12.6041 11 12.6041Z" fill="black"/>
<path d="M10.9999 15.5834C10.8808 15.5834 10.7616 15.5559 10.6516 15.5101C10.5416 15.4642 10.4408 15.4001 10.3491 15.3176C10.2666 15.2259 10.2024 15.1342 10.1566 15.0151C10.1108 14.9051 10.0833 14.7859 10.0833 14.6667C10.0833 14.5476 10.1108 14.4284 10.1566 14.3184C10.2024 14.2084 10.2666 14.1076 10.3491 14.0159C10.4408 13.9334 10.5416 13.8692 10.6516 13.8234C10.8716 13.7317 11.1283 13.7317 11.3483 13.8234C11.4583 13.8692 11.5591 13.9334 11.6508 14.0159C11.7333 14.1076 11.7974 14.2084 11.8433 14.3184C11.8891 14.4284 11.9166 14.5476 11.9166 14.6667C11.9166 14.7859 11.8891 14.9051 11.8433 15.0151C11.7974 15.1342 11.7333 15.2259 11.6508 15.3176C11.5591 15.4001 11.4583 15.4642 11.3483 15.5101C11.2383 15.5559 11.1191 15.5834 10.9999 15.5834Z" fill="black"/>
</svg>
